<?xml version="1.0" encoding="utf-8"?>
<!-- Generator: Adobe Illustrator 25.4.1, SVG Export Plug-In . SVG Version: 6.00 Build 0)  -->
<svg version="1.1" id="Capa_3" xmlns="http://www.w3.org/2000/svg" xmlns:xlink="http://www.w3.org/1999/xlink" x="0px" y="0px"
	 viewBox="0 0 88.3 94.7" style="enable-background:new 0 0 88.3 94.7;" xml:space="preserve">
<style type="text/css">
	.st0{fill:#1D1D1B;}
</style>
<path class="st0" d="M80.4,30h-0.6l-2.2-2.5H46.1l-3.7-5.6H30.2V0H13.9v21.9h-3.4L6.7,27v5.5H3l-3,3.2v14.2l3,3.2h3.8v8l2.5,2.4h4.2
	l0.7,1.1h14.4v30.3h14.9V64.4h2.5v14h18.6V55.2h13.1l2.5-2.9h0.2c4.5,0,8-4.9,8-11.1S84.8,30,80.4,30z M41.3,27.5h-7l1.4-1.6h4.5
	L41.3,27.5z M17.9,4h8.3v17.9h-8.3V4z M10.7,28.3l1.8-2.4h18l-1.3,1.5l0.2,0.1h-0.1v19.7h-15l-0.8,1.2h-2.6V28.3z M4,48.2v-11
	l0.7-0.7h2v12.5h-2L4,48.2z M10.7,59.2v-6.6l0.1-0.1h0.7v6.9h-0.7L10.7,59.2z M16.3,60.4l-0.7-1.1v-7l0.7-1.1h24.5v9.1H16.3z
	 M39.4,90.7h-6.9V64.4h6.9V90.7z M44.8,59.4v-7.1l0.7-1h2.1l0.7,1.1v7l-0.7,1.1h-2.1L44.8,59.4z M60.5,74.4H49.9V64.3l2.1-3.2
	l0.3-0.5v-5.4h8.2V74.4z M68.2,51.2h-16v-0.1l-0.3-0.5l-2.1-3.3H33.2V31.5h35l-1.6,1.9v15.9L68.2,51.2z M80.4,48.3H71l-0.4-0.5V34.9
	l0.8-0.9h9c1.9,0,4,2.9,4,7.1S82.2,48.3,80.4,48.3z"/>
</svg>
