<?xml version="1.0" encoding="utf-8"?>
<!-- Generator: Adobe Illustrator 27.0.0, SVG Export Plug-In . SVG Version: 6.00 Build 0)  -->
<svg version="1.1" id="Capa_2" xmlns="http://www.w3.org/2000/svg" xmlns:xlink="http://www.w3.org/1999/xlink" x="0px" y="0px"
	 viewBox="0 0 556.2 160.9" style="enable-background:new 0 0 556.2 160.9;" xml:space="preserve">
<style type="text/css">
	.st0{fill:#FFFFFF;}
</style>
<path class="st0" d="M42.6,55.1c-0.7-1.4-2.1-2.2-3.6-2.2c0,0,0,0,0,0c-1.5,0-2.9,0.9-3.6,2.2l-31,63.2c-1,2-0.2,4.4,1.8,5.4
	s4.4,0.2,5.4-1.8L39,65.9l27.2,55.8c0.7,1.4,2.1,2.2,3.6,2.2c0.6,0,1.2-0.1,1.7-0.4c2-1,2.8-3.4,1.8-5.3L42.6,55.1z M551.3,118.2
	l-30.8-63.2c-0.7-1.4-2.1-2.2-3.6-2.2c0,0,0,0,0,0c-1.5,0-2.9,0.9-3.6,2.2l-31,63.2c-1,2-0.2,4.4,1.8,5.4c2,1,4.4,0.2,5.4-1.8
	l27.4-55.8l27.2,55.8c0.7,1.4,2.1,2.2,3.6,2.2c0.6,0,1.2-0.1,1.8-0.4C551.5,122.6,552.3,120.2,551.3,118.2z M159.2,52.4
	c-2.2,0-4,1.8-4,4v39.4c0,12.1-9.8,21.9-21.9,21.9s-21.9-9.8-21.9-21.9V56.4c0-2.2-1.8-4-4-4s-4,1.8-4,4v39.4
	c0,16.5,13.4,29.9,29.9,29.9s29.9-13.4,29.9-29.9V56.4C163.2,54.2,161.4,52.4,159.2,52.4z M451.4,74.1c0-13-10.5-23.5-23.5-23.5
	h-21.6c-5,0-7.9,2-9.4,3.7c-3,3.4-2.9,7.7-2.9,8.9V120c0,2.2,1.8,4,4,4s4-1.8,4-4V97.6h22.1l18.7,24.8c0.8,1,2,1.6,3.2,1.6
	c0.8,0,1.7-0.3,2.4-0.8c1.8-1.3,2.1-3.8,0.8-5.6l-15.6-20.8C443.9,94.3,451.4,85,451.4,74.1z M427.9,89.6h-25.8V63
	c0-0.1,0-0.2,0-0.4c0,0-0.1-1.9,0.9-3c0.6-0.7,1.8-1,3.4-1h21.6c8.5,0,15.5,7,15.5,15.5S436.5,89.6,427.9,89.6z M260.5,74.1
	c0-13-10.5-23.5-23.5-23.5h-21.6c-5,0-7.9,2-9.4,3.7c-3,3.4-2.9,7.7-2.9,8.9V120c0,2.2,1.8,4,4,4s4-1.8,4-4V97.6h22.1l18.7,24.8
	c0.8,1,2,1.6,3.2,1.6c0.8,0,1.7-0.3,2.4-0.8c1.8-1.3,2.1-3.8,0.8-5.6l-15.6-20.8C253,94.3,260.5,85,260.5,74.1z M237,89.6h-25.8V63
	c0-0.1,0-0.2,0-0.4c0,0-0.1-1.9,0.9-3c0.6-0.7,1.8-1,3.4-1H237c8.5,0,15.5,7,15.5,15.5S245.6,89.6,237,89.6z M323.9,2.8
	c-20.8,0-37.8,16.9-37.8,37.8s16.9,37.8,37.8,37.8s37.8-16.9,37.8-37.8S344.7,2.8,323.9,2.8z M323.9,70.3
	c-16.4,0-29.8-13.3-29.8-29.8s13.3-29.8,29.8-29.8s29.8,13.3,29.8,29.8S340.3,70.3,323.9,70.3z M332.5,82.3h-17.1
	c-3.4,0-6.2,2.8-6.2,6.2v8.4c0,3.4,2.8,6.2,6.2,6.2h17.1c3.4,0,6.2-2.8,6.2-6.2v-8.4C338.7,85.1,335.9,82.3,332.5,82.3z M332.7,96.9
	c0,0.1-0.1,0.2-0.2,0.2h-17.1c-0.1,0-0.2-0.1-0.2-0.2v-8.4c0-0.1,0.1-0.2,0.2-0.2h17.1c0.1,0,0.2,0.1,0.2,0.2V96.9z"/>
</svg>
