<?xml version="1.0" encoding="utf-8"?>
<!-- Generator: Adobe Illustrator 24.1.2, SVG Export Plug-In . SVG Version: 6.00 Build 0)  -->
<svg version="1.1" id="Capa_1" xmlns="http://www.w3.org/2000/svg" xmlns:xlink="http://www.w3.org/1999/xlink" x="0px" y="0px"
	 viewBox="0 0 582.14 116.7" style="enable-background:new 0 0 582.14 116.7;" xml:space="preserve">
<style type="text/css">
	.st0{fill:#FFBD54;}
</style>
<path class="st0" d="M147.77,38.79c-4.77-3.72-10.18-5.58-16.25-5.58c-3.58,0-7.01,0.69-10.29,2.07c-3.17,1.35-5.98,3.24-8.43,5.66
	c-2.43,2.45-4.31,5.26-5.66,8.43c-1.38,3.28-2.07,6.71-2.07,10.29v24.8h9.92v-24.8c0-2.23,0.43-4.38,1.28-6.45
	c0.85-1.96,2.04-3.71,3.56-5.25c1.52-1.52,3.27-2.7,5.25-3.56c2.04-0.85,4.19-1.28,6.45-1.28c3.78,0,7.15,1.16,10.13,3.47
	c2.95,2.29,4.89,5.21,5.83,8.76l9.59-2.56c-0.74-2.78-1.93-5.39-3.56-7.81C151.94,42.62,150.03,40.55,147.77,38.79z M80.88,45.15
	c-1.6-2.42-3.53-4.53-5.79-6.33c-2.29-1.79-4.8-3.17-7.52-4.13c-2.84-0.99-5.77-1.49-8.81-1.49c-3.58,0-7.01,0.69-10.29,2.07
	c-3.17,1.35-5.98,3.24-8.43,5.66c-2.43,2.45-4.31,5.26-5.66,8.43c-1.38,3.28-2.07,6.71-2.07,10.29c0,3.58,0.69,7.01,2.07,10.29
	c1.35,3.17,3.24,5.98,5.66,8.43c2.45,2.43,5.26,4.31,8.43,5.66c3.28,1.38,6.71,2.07,10.29,2.07c5.24,0,10.03-1.42,14.39-4.26
	c4.24-2.76,7.44-6.42,9.59-11l-8.97-4.22c-1.35,2.87-3.35,5.17-5.99,6.9c-2.73,1.76-5.73,2.65-9.01,2.65
	c-3.97,0-7.48-1.27-10.54-3.8c-3-2.48-4.89-5.62-5.66-9.43h42.46c0.14-1.1,0.21-2.21,0.21-3.31c0-2.26-0.28-4.46-0.83-6.61
	C83.65,50.21,82.48,47.58,80.88,45.15z M43.59,53.05c1.3-2.98,3.29-5.36,5.99-7.15c2.78-1.85,5.84-2.77,9.18-2.77
	c3.33,0,6.39,0.92,9.18,2.77c2.7,1.79,4.7,4.18,5.99,7.15H43.59z M490.9,40.93c-2.45-2.42-5.26-4.31-8.43-5.66
	c-3.28-1.38-6.71-2.07-10.29-2.07c-3.09,0-6.06,0.51-8.93,1.53c-2.76,0.99-5.29,2.41-7.61,4.26V12h-9.92v47.66
	c0,3.58,0.69,7.01,2.07,10.29c1.35,3.17,3.24,5.98,5.66,8.43c2.45,2.43,5.26,4.31,8.43,5.66c3.28,1.38,6.71,2.07,10.29,2.07
	s7.01-0.69,10.29-2.07c3.17-1.35,5.98-3.24,8.43-5.66c2.42-2.45,4.31-5.26,5.66-8.43c1.38-3.28,2.07-6.71,2.07-10.29
	c0-3.58-0.69-7.01-2.07-10.29C495.21,46.2,493.32,43.39,490.9,40.93z M487.38,66.11c-0.83,1.96-2,3.71-3.51,5.25
	c-1.54,1.52-3.29,2.7-5.25,3.56c-2.07,0.85-4.22,1.28-6.45,1.28s-4.38-0.43-6.45-1.28c-1.98-0.85-3.73-2.04-5.25-3.56
	c-1.52-1.54-2.7-3.29-3.56-5.25c-0.85-2.07-1.28-4.22-1.28-6.45s0.43-4.38,1.28-6.45c0.85-1.96,2.04-3.71,3.56-5.25
	c1.52-1.52,3.27-2.7,5.25-3.56c2.07-0.85,4.22-1.28,6.45-1.28s4.38,0.43,6.45,1.28c1.96,0.85,3.71,2.04,5.25,3.56
	c1.52,1.54,2.69,3.29,3.51,5.25c0.88,2.07,1.32,4.22,1.32,6.45S488.27,64.04,487.38,66.11z M214.2,59.66c0,1.3-0.1,2.78-0.36,4.04
	c-0.66,3.22-1.26,4.73-3.91,7.05c-3.11,2.76-8.1,3.53-12.26,3.53s-8.53-0.62-11.67-3.38c-2.62-2.32-3.61-4.02-4.41-7.44
	c-0.29-1.24-0.45-2.51-0.45-3.8v-24.8h-9.92v24.8c0,4.41,0.68,9.3,2.74,13.16c1.79,3.39,4.03,5.62,7.4,7.6
	c5,2.94,10.12,3.69,16.32,3.69s11.07-1.17,16.54-3.79c0,0,0.07,2.25-0.26,5.1c-0.33,2.86-1.69,5.39-3.29,6.51s-2.89,2.29-7.86,2.47
	h-19.9v10.28h22.18c4.2,0,6.71-0.76,9.07-1.95c2.36-1.19,4.2-2.81,6.13-5.7s3.84-7.84,3.84-12.58V34.86h-9.92V59.66z M548.56,62.33
	c-0.78-1.63-1.8-3.06-3.06-4.28c-1.26-1.22-2.74-2.19-4.44-2.91c-1.7-0.71-3.5-1.07-5.41-1.07h-7.04c-1.43,0-2.67-0.49-3.72-1.48
	c-1.06-0.99-1.65-2.19-1.79-3.62c-0.14-0.75-0.14-1.46,0-2.14c0.14-1.5,0.73-2.74,1.79-3.72c1.05-0.98,2.29-1.48,3.72-1.48h19.58
	v-8.77h-19.58c-1.9,0-3.69,0.34-5.35,1.02c-1.67,0.68-3.15,1.63-4.44,2.86c-1.29,1.22-2.33,2.65-3.11,4.28
	c-0.78,1.63-1.21,3.37-1.27,5.2c-0.07,0.41-0.1,0.94-0.1,1.58c0,0.65,0.03,1.17,0.1,1.58c0.07,1.9,0.49,3.67,1.27,5.3
	c0.78,1.63,1.82,3.04,3.11,4.23c1.29,1.19,2.77,2.13,4.44,2.8c1.67,0.68,3.45,1.02,5.35,1.02h6.94c1.56,0,2.87,0.53,3.93,1.58
	c1.05,1.05,1.61,2.36,1.68,3.93v1.94c0,0.14-0.02,0.25-0.05,0.36c-0.04,0.1-0.05,0.22-0.05,0.36v0.41c-0.34,1.22-1,2.28-1.99,3.16
	c-0.99,0.88-2.16,1.33-3.52,1.33h-20.09v8.67h20.09c1.97,0,3.82-0.36,5.56-1.07s3.23-1.72,4.49-3.01c1.26-1.29,2.28-2.77,3.06-4.44
	c0.78-1.67,1.17-3.48,1.17-5.46v-2.86C549.77,65.73,549.34,63.96,548.56,62.33z M416.48,40.93c-2.45-2.42-5.26-4.31-8.43-5.66
	c-3.28-1.38-6.71-2.07-10.29-2.07c-3.58,0-7.01,0.69-10.29,2.07c-3.17,1.35-5.98,3.24-8.43,5.66c-2.43,2.45-4.31,5.26-5.66,8.43
	c-1.38,3.28-2.07,6.71-2.07,10.29c0,3.58,0.69,7.01,2.07,10.29c1.35,3.17,3.24,5.98,5.66,8.43c2.45,2.43,5.26,4.31,8.43,5.66
	c3.28,1.38,6.71,2.07,10.29,2.07c3.09,0,6.06-0.51,8.93-1.53c2.76-0.99,5.29-2.41,7.61-4.26v4.13h9.92v-24.8
	c0-3.58-0.69-7.01-2.07-10.29C420.8,46.2,418.91,43.39,416.48,40.93z M412.97,66.11c-0.83,1.96-2,3.71-3.51,5.25
	c-1.54,1.52-3.29,2.7-5.25,3.56c-2.07,0.85-4.22,1.28-6.45,1.28c-2.26,0-4.41-0.43-6.45-1.28c-1.98-0.85-3.74-2.04-5.25-3.56
	c-1.52-1.54-2.7-3.29-3.56-5.25c-0.85-2.07-1.28-4.22-1.28-6.45s0.43-4.38,1.28-6.45c0.85-1.98,2.04-3.73,3.56-5.25
	c1.51-1.52,3.27-2.7,5.25-3.56c2.04-0.85,4.19-1.28,6.45-1.28c2.23,0,4.38,0.43,6.45,1.28c1.96,0.85,3.71,2.04,5.25,3.56
	c1.52,1.52,2.69,3.27,3.51,5.25c0.88,2.07,1.32,4.22,1.32,6.45S413.85,64.04,412.97,66.11z M341.53,84.47h9.92V12h-9.92V84.47z
	 M280.39,33.78l-17.32,19.06l-17.32-19.06l-6.82,6.2l17.9,19.72l-17.9,19.72l6.82,6.2l17.32-19.06l17.32,19.06l6.82-6.2l-17.9-19.72
	l17.9-19.72L280.39,33.78z"/>
</svg>
